<svg xmlns="http://www.w3.org/2000/svg" xmlns:xlink="http://www.w3.org/1999/xlink" xmlns:lucid="lucid" width="1360" height="1760"><g transform="translate(0 0)" lucid:page-tab-id="0_0"><path d="M488 260c17.67 0 32 17.9 32 40s-14.33 40-32 40h-96c-17.67 0-32-17.9-32-40s14.33-40 32-40z" stroke="#000" stroke-opacity="0" stroke-width="2" fill="#d2d3d5"/><use xlink:href="#a" transform="matrix(1,0,0,1,365,265) translate(56.025 38.6)"/><path d="M600 248c0-4.42 3.58-8 8-8h144c4.42 0 8 3.58 8 8v104c0 4.42-3.58 8-8 8H608c-4.42 0-8-3.58-8-8z" stroke="#000" stroke-opacity="0" stroke-width="2" fill="#d85656"/><use xlink:href="#b" transform="matrix(1,0,0,1,605,245) translate(54.75 58.6)"/><path d="M629.94 447.73c1.14-4.27 5.64-7.73 10.06-7.73h112c4.42 0 7.08 3.46 5.94 7.73l-27.88 104.54c-1.14 4.27-5.64 7.73-10.06 7.73H608c-4.42 0-7.08-3.46-5.94-7.73z" stroke="#000" stroke-opacity="0" stroke-width="2" fill="#eb6b6b"/><use xlink:href="#c" transform="matrix(1,0,0,1,605.0000000000002,445) translate(46.925 58.6)"/><use xlink:href="#d" transform="matrix(1,0,0,1,605.0000000000002,445) translate(92.875 58.6)"/><path d="M673.6 644.8c3.53-2.65 9.27-2.65 12.8 0l67.2 50.4c3.53 2.65 3.53 6.95 0 9.6l-67.2 50.4c-3.53 2.65-9.27 2.65-12.8 0l-67.2-50.4c-3.53-2.65-3.53-6.95 0-9.6z" stroke="#c54242" stroke-width="4" fill="#fff"/><use xlink:href="#e" transform="matrix(1,0,0,1,605,645) translate(33.4 58.6)"/><use xlink:href="#f" transform="matrix(1,0,0,1,605,645) translate(52.4 58.6)"/><use xlink:href="#g" transform="matrix(1,0,0,1,605,645) translate(67.6 58.6)"/><path d="M360 648c0-4.42 3.58-8 8-8h144c4.42 0 8 3.58 8 8v104c0 4.42-3.58 8-8 8H368c-4.42 0-8-3.58-8-8z" stroke="#000" stroke-opacity="0" stroke-width="2" fill="#ff8080"/><use xlink:href="#h" transform="matrix(1,0,0,1,365,645) translate(39.3 58.6)"/><use xlink:href="#i" transform="matrix(1,0,0,1,365,645) translate(54.5 58.6)"/><use xlink:href="#j" transform="matrix(1,0,0,1,365,645) translate(70 58.6)"/><use xlink:href="#k" transform="matrix(1,0,0,1,365,645) translate(85.2 58.6)"/><use xlink:href="#l" transform="matrix(1,0,0,1,365,645) translate(100.7 58.6)"/><path d="M673.6 844.8c3.53-2.65 9.27-2.65 12.8 0l67.2 50.4c3.53 2.65 3.53 6.95 0 9.6l-67.2 50.4c-3.53 2.65-9.27 2.65-12.8 0l-67.2-50.4c-3.53-2.65-3.53-6.95 0-9.6z" stroke="#c54242" stroke-width="4" fill="#fff"/><use xlink:href="#m" transform="matrix(1,0,0,1,605,845) translate(68 47.8)"/><use xlink:href="#n" transform="matrix(1,0,0,1,605,845) translate(39.975 69.4)"/><use xlink:href="#o" transform="matrix(1,0,0,1,605,845) translate(55.175000000000004 69.4)"/><path d="M673.6 1044.8c3.53-2.65 9.27-2.65 12.8 0l67.2 50.4c3.53 2.65 3.53 6.95 0 9.6l-67.2 50.4c-3.53 2.65-9.27 2.65-12.8 0l-67.2-50.4c-3.53-2.65-3.53-6.95 0-9.6z" stroke="#c54242" stroke-width="4" fill="#fff"/><use xlink:href="#e" transform="matrix(1,0,0,1,605,1045) translate(39.15 58.6)"/><use xlink:href="#p" transform="matrix(1,0,0,1,605,1045) translate(58.15 58.6)"/><use xlink:href="#q" transform="matrix(1,0,0,1,605,1045) translate(73.35 58.6)"/><use xlink:href="#r" transform="matrix(1,0,0,1,605,1045) translate(88.85 58.6)"/><path d="M360 1048c0-4.42 3.58-8 8-8h144c4.42 0 8 3.58 8 8v104c0 4.42-3.58 8-8 8H368c-4.42 0-8-3.58-8-8z" stroke="#000" stroke-opacity="0" stroke-width="2" fill="#ffc2c2"/><use xlink:href="#s" transform="matrix(1,0,0,1,365,1045) translate(39.775 58.6)"/><use xlink:href="#t" transform="matrix(1,0,0,1,365,1045) translate(56.775 58.6)"/><use xlink:href="#u" transform="matrix(1,0,0,1,365,1045) translate(72.275 58.6)"/><use xlink:href="#v" transform="matrix(1,0,0,1,365,1045) translate(89.275 58.6)"/><use xlink:href="#w" transform="matrix(1,0,0,1,365,1045) translate(100.225 58.6)"/><path d="M629.46 1447.73c1.14-4.27 5.64-7.73 10.06-7.73h112c4.42 0 7.08 3.46 5.94 7.73l-27.88 104.54c-1.14 4.27-5.64 7.73-10.06 7.73h-112c-4.42 0-7.08-3.46-5.94-7.73z" stroke="#000" stroke-opacity="0" stroke-width="2" fill="#ffe4e4"/><use xlink:href="#x" transform="matrix(1,0,0,1,604.5213070194006,1445) translate(42.4 58.6)"/><use xlink:href="#y" transform="matrix(1,0,0,1,604.5213070194006,1445) translate(97.4 58.6)"/><path d="M968 1460c17.67 0 32 17.9 32 40s-14.33 40-32 40h-96c-17.67 0-32-17.9-32-40s14.33-40 32-40z" stroke="#000" stroke-opacity="0" stroke-width="2" fill="#d2d3d5"/><use xlink:href="#z" transform="matrix(1,0,0,1,845,1465) translate(56.5 38.6)"/><path d="M840 1048c0-4.42 3.58-8 8-8h144c4.42 0 8 3.58 8 8v104c0 4.42-3.58 8-8 8H848c-4.42 0-8-3.58-8-8z" stroke="#000" stroke-opacity="0" stroke-width="2" fill="#ffc2c2"/><use xlink:href="#s" transform="matrix(1,0,0,1,845,1045) translate(39.675 58.6)"/><use xlink:href="#t" transform="matrix(1,0,0,1,845,1045) translate(56.675 58.6)"/><use xlink:href="#u" transform="matrix(1,0,0,1,845,1045) translate(72.175 58.6)"/><use xlink:href="#v" transform="matrix(1,0,0,1,845,1045) translate(89.175 58.6)"/><use xlink:href="#A" transform="matrix(1,0,0,1,845,1045) translate(100.125 58.6)"/><path d="M840 848c0-4.42 3.58-8 8-8h144c4.42 0 8 3.58 8 8v104c0 4.42-3.58 8-8 8H848c-4.42 0-8-3.58-8-8z" stroke="#000" stroke-opacity="0" stroke-width="2" fill="#ffa0a0"/><use xlink:href="#B" transform="matrix(1,0,0,1,845,845) translate(39.3 58.6)"/><use xlink:href="#t" transform="matrix(1,0,0,1,845,845) translate(54.5 58.6)"/><use xlink:href="#f" transform="matrix(1,0,0,1,845,845) translate(70 58.6)"/><use xlink:href="#C" transform="matrix(1,0,0,1,845,845) translate(85.2 58.6)"/><use xlink:href="#D" transform="matrix(1,0,0,1,845,845) translate(100.7 58.6)"/><path d="M520.5 300h63.12" stroke="#333" fill="none"/><path d="M520.5 300.5h-.53l.03-.5-.02-.5h.53z" stroke="#333" stroke-width=".05" fill="#333"/><path d="M598.38 300l-14.26 4.64v-9.28z" stroke="#333" fill="#333"/><path d="M680 360.5V423.62" stroke="#333" fill="none"/><path d="M680.5 360.5h-1v-.5h1z" stroke="#333" stroke-width=".05" fill="#333"/><path d="M680 438.38l-4.64-14.26h9.28z" stroke="#333" fill="#333"/><path d="M545.37 701h-6.87v-2h6.87zm55.5 0h-24.4v-2h24.4z" stroke="#7ab648" stroke-width=".05" fill="#7ab648"/><path d="M601.82 701h-1v-2h1.08z" fill="#7ab648"/><path d="M601.84 701.02h-1.03V699h1.13zm-.98-2V701h.93l.07-1.96z" stroke="#7ab648" stroke-width=".05" fill="#7ab648"/><path d="M537.5 704.64L523.24 700l14.26-4.64z" fill="#7ab648"/><path d="M538.5 706l-18.5-6 18.5-6zm-12.03-6l10.03 3.26v-6.52z" stroke="#7ab648" stroke-width=".05" fill="#7ab648"/><use xlink:href="#E" transform="matrix(1,0,0,1,545.3733150744943,690.6666666666666) translate(0 12.444444444444446)"/><path d="M681 822.4h-2v-24.24h2zm0-42.9h-2v-19.4h2z" stroke="#c92d39" stroke-width=".05" fill="#c92d39"/><path d="M681 759.1v1h-2v-1.02z" fill="#c92d39"/><path d="M681.02 759.07v1.07H679v-1.1zm-2 1.02H681v-.98l-1.96-.02z" stroke="#c92d39" stroke-width=".05" fill="#c92d39"/><path d="M680 837.68l-4.64-14.27h9.28z" fill="#c92d39"/><path d="M680 840.9l-6-18.5h12zm-3.26-16.5l3.26 10.04 3.26-10.03z" stroke="#c92d39" stroke-width=".05" fill="#c92d39"/><use xlink:href="#F" transform="matrix(1,0,0,1,668.354938271605,779.4923770987834) translate(0 12.444444444444446)"/><path d="M680 560.5v64.03" stroke="#333" fill="none"/><path d="M680.5 560.5h-1v-.5h1z" stroke="#333" stroke-width=".05" fill="#333"/><path d="M680 639.3l-4.64-14.27h9.28z" stroke="#333" fill="#333"/><path d="M774.4 901h-15.26v-2h15.27zm47.1 0h-23.8v-2h23.8z" stroke="#c92d39" stroke-width=".05" fill="#c92d39"/><path d="M759.17 901h-1.07l.08-2h1z" fill="#c92d39"/><path d="M759.2 901.02h-1.13l.1-2.04h1.02zm-1-2l-.07 1.96h1V899z" stroke="#c92d39" stroke-width=".05" fill="#c92d39"/><path d="M836.76 900l-14.26 4.64v-9.28z" fill="#c92d39"/><path d="M840 900l-18.5 6v-12zm-16.5 3.26l10.03-3.26-10.03-3.26z" stroke="#c92d39" stroke-width=".05" fill="#c92d39"/><use xlink:href="#F" transform="matrix(1,0,0,1,774.405155996766,890.6666666666666) translate(0 12.444444444444446)"/><path d="M920 839.5V710c0-5.52-4.48-10-10-10H774.53" stroke="#333" fill="none"/><path d="M920.5 840h-1v-.5h1z" stroke="#333" stroke-width=".05" fill="#333"/><path d="M759.76 700l14.27-4.64v9.28z" stroke="#333" fill="#333"/><path d="M681 1022.4h-2v-22.7h2zm0-41.36h-2V960.1h2z" stroke="#7ab648" stroke-width=".05" fill="#7ab648"/><path d="M681 959.1v1h-2v-1.02z" fill="#7ab648"/><path d="M681.02 959.07v1.07H679v-1.1zm-2 1.02H681v-.98l-1.96-.02z" stroke="#7ab648" stroke-width=".05" fill="#7ab648"/><path d="M680 1037.68l-4.64-14.27h9.28z" fill="#7ab648"/><path d="M680 1040.9l-6-18.5h12zm-3.26-16.5l3.26 10.04 3.26-10.03z" stroke="#7ab648" stroke-width=".05" fill="#7ab648"/><use xlink:href="#E" transform="matrix(1,0,0,1,664.4444444444445,981.0389820677673) translate(0 12.444444444444446)"/><path d="M772.23 1101h-13.1v-2h13.1zm49.27 0h-18.16v-2h18.16z" stroke="#7ab648" stroke-width=".05" fill="#7ab648"/><path d="M759.17 1101h-1.07l.08-2h1z" fill="#7ab648"/><path d="M759.2 1101.03h-1.13l.1-2.06h1.02zm-1-2l-.07 1.94h1v-1.94z" stroke="#7ab648" stroke-width=".05" fill="#7ab648"/><path d="M836.76 1100l-14.26 4.64v-9.28z" fill="#7ab648"/><path d="M840 1100l-18.5 6v-12zm-16.5 3.26l10.03-3.26-10.03-3.26z" stroke="#7ab648" stroke-width=".05" fill="#7ab648"/><use xlink:href="#E" transform="matrix(1,0,0,1,772.2289152699368,1090.6666666666667) translate(0 12.444444444444446)"/><path d="M920 1039.5v-63.12" stroke="#333" fill="none"/><path d="M920.5 1040h-1v-.5h1z" stroke="#333" stroke-width=".05" fill="#333"/><path d="M920 961.62l4.64 14.26h-9.28z" stroke="#333" fill="#333"/><path d="M560.94 1101H538.5v-2h22.44zm39.92 0h-16.63v-2h16.63z" stroke="#c92d39" stroke-width=".05" fill="#c92d39"/><path d="M601.82 1101h-1v-2h1.08z" fill="#c92d39"/><path d="M601.84 1101.03h-1.03v-2.06h1.13zm-.98-2v1.94h.93l.07-1.94z" stroke="#c92d39" stroke-width=".05" fill="#c92d39"/><path d="M537.5 1104.64l-14.26-4.64 14.26-4.64z" fill="#c92d39"/><path d="M538.5 1106l-18.5-6 18.5-6zm-12.03-6l10.03 3.26v-6.52z" stroke="#c92d39" stroke-width=".05" fill="#c92d39"/><use xlink:href="#F" transform="matrix(1,0,0,1,560.9423356871841,1090.6666666666667) translate(0 12.444444444444446)"/><path d="M440 1160.5v64.03" stroke="#333" fill="none"/><path d="M440.5 1160.5h-1v-.5h1z" stroke="#333" stroke-width=".05" fill="#333"/><path d="M440 1239.3l-4.64-14.27h9.28z" stroke="#333" fill="#333"/><path d="M524.64 1301h-5.5v-2h5.5zm508.84-401.45l3.02 1.56 2.4 2.4 1.55 3.02.55 3.4v380.16l-.55 3.4-1.56 3.02-2.4 2.4-3.02 1.55-3.4.55H547.93v-2h482l2.9-.47 2.48-1.28 1.95-1.94 1.28-2.46.47-2.92V910.08l-.47-2.92-1.28-2.47-1.94-1.95-2.46-1.28-2.92-.47h-11.42v-2h11.58z" stroke="#c92d39" stroke-width=".05" fill="#c92d39"/><path d="M519.17 1301h-1.07l.08-2h1z" fill="#c92d39"/><path d="M519.2 1301.03h-1.13l.1-2.06h1.02zm-1-2l-.07 1.94h1v-1.94z" stroke="#c92d39" stroke-width=".05" fill="#c92d39"/><path d="M1017.5 904.64l-14.26-4.64 14.26-4.64z" fill="#c92d39"/><path d="M1018.5 906l-18.5-6 18.5-6zm-12.03-6l10.03 3.26v-6.52z" stroke="#c92d39" stroke-width=".05" fill="#c92d39"/><g><use xlink:href="#F" transform="matrix(1,0,0,1,524.6423529539018,1290.6666666666667) translate(0 12.444444444444446)"/></g><path d="M441 1489.92l.47 2.92 1.28 2.47 1.94 1.95 2.46 1.28 2.92.47h146.94v2h-147.1l-3.4-.55-3.02-1.56-2.4-2.4-1.55-3.02-.55-3.4v-92.36h2zm0-110.86h-2v-18.97h2z" stroke="#7ab648" stroke-width=".05" fill="#7ab648"/><path d="M441 1359.1v1h-2v-1.02z" fill="#7ab648"/><path d="M441.02 1359.07v1.07h-2.04v-1.1zm-2 1.02h1.96v-.98l-1.96-.02z" stroke="#7ab648" stroke-width=".05" fill="#7ab648"/><path d="M612.3 1500l-14.28 4.64v-9.28z" fill="#7ab648"/><path d="M615.52 1500l-18.5 6v-12zm-16.5 3.26l10.03-3.26-10.03-3.26z" stroke="#7ab648" stroke-width=".05" fill="#7ab648"/><g><use xlink:href="#E" transform="matrix(1,0,0,1,424.44444444444446,1379.0568318111448) translate(0 12.444444444444446)"/></g><path d="M744.02 1500h79.6" stroke="#333" fill="none"/><path d="M744.03 1500.5h-.64l.25-1h.38z" stroke="#333" stroke-width=".05" fill="#333"/><path d="M838.38 1500l-14.26 4.64v-9.28z" stroke="#333" fill="#333"/><path d="M433.6 1244.8c3.53-2.65 9.27-2.65 12.8 0l67.2 50.4c3.53 2.65 3.53 6.95 0 9.6l-67.2 50.4c-3.53 2.65-9.27 2.65-12.8 0l-67.2-50.4c-3.53-2.65-3.53-6.95 0-9.6z" stroke="#c54242" stroke-width="4" fill="#fff"/><g><use xlink:href="#G" transform="matrix(1,0,0,1,365,1245) translate(54.025 47.8)"/><use xlink:href="#H" transform="matrix(1,0,0,1,365,1245) translate(48.75 69.4)"/><use xlink:href="#I" transform="matrix(1,0,0,1,365,1245) translate(65.75 69.4)"/><use xlink:href="#J" transform="matrix(1,0,0,1,365,1245) translate(81.25 69.4)"/></g><path d="M252.67 79c0-4.42 3.58-8 8-8h836.75c4.42 0 8 3.58 8 8v25.16c0 4.4-3.58 8-8 8H260.67c-4.42 0-8-3.6-8-8z" stroke="#000" stroke-opacity="0" stroke-width="2" fill="#fff" fill-opacity="0"/><g><use xlink:href="#K" transform="matrix(1,0,0,1,256.6678598047438,74.99999999994924) translate(313.1637037037037 23.657777777777778)"/><use xlink:href="#L" transform="matrix(1,0,0,1,256.6678598047438,74.99999999994924) translate(336.3995061728395 23.657777777777778)"/><use xlink:href="#M" transform="matrix(1,0,0,1,256.6678598047438,74.99999999994924) translate(484.70074074074074 23.657777777777778)"/></g><path d="M462.85 110.8h437.9M462.87 110.8h-1.02M900.73 110.8h1.03" stroke="#a9afb8" stroke-width="2" fill="none"/><path d="M252.67 120.16c0-4.42 3.58-8 8-8h837.7c4.42 0 8 3.58 8 8V123c0 4.42-3.58 8-8 8h-837.7c-4.42 0-8-3.58-8-8z" stroke="#000" stroke-opacity="0" stroke-width="2" fill="#fff" fill-opacity="0"/><g><use xlink:href="#N" transform="matrix(1,0,0,1,256.66785980474424,116.15522395684805) translate(312.7774897119342 14.917037037037037)"/><use xlink:href="#O" transform="matrix(1,0,0,1,256.66785980474424,116.15522395684805) translate(361.08829218107 14.917037037037037)"/><use xlink:href="#P" transform="matrix(1,0,0,1,256.66785980474424,116.15522395684805) translate(441.69127572016464 14.917037037037037)"/><use xlink:href="#Q" transform="matrix(1,0,0,1,256.66785980474424,116.15522395684805) translate(454.14076131687244 14.917037037037037)"/><use xlink:href="#R" transform="matrix(1,0,0,1,256.66785980474424,116.15522395684805) translate(488.8548559670782 14.917037037037037)"/><use xlink:href="#S" transform="matrix(1,0,0,1,256.66785980474424,116.15522395684805) translate(505.8507407407408 14.917037037037037)"/></g><defs><path fill="#3d4752" d="M185-189c-5-48-123-54-124 2 14 75 158 14 163 119 3 78-121 87-175 55-17-10-28-26-33-46l33-7c5 56 141 63 141-1 0-78-155-14-162-118-5-82 145-84 179-34 5 7 8 16 11 25" id="T"/><path fill="#3d4752" d="M59-47c-2 24 18 29 38 22v24C64 9 27 4 27-40v-127H5v-23h24l9-43h21v43h35v23H59v120" id="U"/><path fill="#3d4752" d="M141-36C126-15 110 5 73 4 37 3 15-17 15-53c-1-64 63-63 125-63 3-35-9-54-41-54-24 1-41 7-42 31l-33-3c5-37 33-52 76-52 45 0 72 20 72 64v82c-1 20 7 32 28 27v20c-31 9-61-2-59-35zM48-53c0 20 12 33 32 33 41-3 63-29 60-74-43 2-92-5-92 41" id="V"/><path fill="#3d4752" d="M114-163C36-179 61-72 57 0H25l-1-190h30c1 12-1 29 2 39 6-27 23-49 58-41v29" id="W"/><g id="a"><use transform="matrix(0.05,0,0,0.05,0,0)" xlink:href="#T"/><use transform="matrix(0.05,0,0,0.05,12,0)" xlink:href="#U"/><use transform="matrix(0.05,0,0,0.05,17,0)" xlink:href="#V"/><use transform="matrix(0.05,0,0,0.05,27,0)" xlink:href="#W"/><use transform="matrix(0.05,0,0,0.05,32.95,0)" xlink:href="#U"/></g><path fill="#fff" d="M115-194c55 1 70 41 70 98S169 2 115 4C84 4 66-9 55-30l1 105H24l-1-265h31l2 30c10-21 28-34 59-34zm-8 174c40 0 45-34 45-75s-6-73-45-74c-42 0-51 32-51 76 0 43 10 73 51 73" id="X"/><path fill="#fff" d="M18-150v-26h174v26H18zm0 90v-26h174v26H18" id="Y"/><path fill="#fff" d="M54-142c48-35 137-8 131 61C196 18 31 33 14-55l32-4c7 23 22 37 52 37 35-1 51-22 54-58 4-55-73-65-99-34H22l8-134h141v27H59" id="Z"/><g id="b"><use transform="matrix(0.05,0,0,0.05,0,0)" xlink:href="#X"/><use transform="matrix(0.05,0,0,0.05,10,0)" xlink:href="#Y"/><use transform="matrix(0.05,0,0,0.05,20.5,0)" xlink:href="#X"/><use transform="matrix(0.05,0,0,0.05,30.5,0)" xlink:href="#Z"/></g><path fill="#fff" d="M100-194c63 0 86 42 84 106H49c0 40 14 67 53 68 26 1 43-12 49-29l28 8c-11 28-37 45-77 45C44 4 14-33 15-96c1-61 26-98 85-98zm52 81c6-60-76-77-97-28-3 7-6 17-6 28h103" id="aa"/><path fill="#fff" d="M117-194c89-4 53 116 60 194h-32v-121c0-31-8-49-39-48C34-167 62-67 57 0H25l-1-190h30c1 10-1 24 2 32 11-22 29-35 61-36" id="ab"/><path fill="#fff" d="M59-47c-2 24 18 29 38 22v24C64 9 27 4 27-40v-127H5v-23h24l9-43h21v43h35v23H59v120" id="ac"/><path fill="#fff" d="M114-163C36-179 61-72 57 0H25l-1-190h30c1 12-1 29 2 39 6-27 23-49 58-41v29" id="ad"/><g id="c"><use transform="matrix(0.05,0,0,0.05,0,0)" xlink:href="#aa"/><use transform="matrix(0.05,0,0,0.05,10,0)" xlink:href="#ab"/><use transform="matrix(0.05,0,0,0.05,20,0)" xlink:href="#ac"/><use transform="matrix(0.05,0,0,0.05,25,0)" xlink:href="#aa"/><use transform="matrix(0.05,0,0,0.05,35,0)" xlink:href="#ad"/></g><path fill="#fff" d="M103-194c57 0 87 42 87 103-1 54-25 93-76 95C85 5 68-7 54-22l1 97H23c8-108-35-269 80-269zm7 174c36 0 46-32 46-72 0-44-15-79-55-79-55 0-46 68-46 125 12 15 30 26 55 26" id="ae"/><use transform="matrix(0.05,0,0,0.05,0,0)" xlink:href="#ae" id="d"/><path fill="#333" d="M33 0v-248h34V0H33" id="af"/><path fill="#333" d="M135-143c-3-34-86-38-87 0 15 53 115 12 119 90S17 21 10-45l28-5c4 36 97 45 98 0-10-56-113-15-118-90-4-57 82-63 122-42 12 7 21 19 24 35" id="ag"/><g id="e"><use transform="matrix(0.05,0,0,0.05,0,0)" xlink:href="#af"/><use transform="matrix(0.05,0,0,0.05,5,0)" xlink:href="#ag"/></g><path fill="#333" d="M103-194c57 0 87 42 87 103-1 54-25 93-76 95C85 5 68-7 54-22l1 97H23c8-108-35-269 80-269zm7 174c36 0 46-32 46-72 0-44-15-79-55-79-55 0-46 68-46 125 12 15 30 26 55 26" id="ah"/><use transform="matrix(0.05,0,0,0.05,0,0)" xlink:href="#ah" id="f"/><path fill="#333" d="M100-194c63 0 86 42 84 106H49c0 40 14 67 53 68 26 1 43-12 49-29l28 8c-11 28-37 45-77 45C44 4 14-33 15-96c1-61 26-98 85-98zm52 81c6-60-76-77-97-28-3 7-6 17-6 28h103" id="ai"/><path fill="#333" d="M108 0H70L1-190h34L89-25l56-165h34" id="aj"/><path fill="#333" d="M117-194c89-4 53 116 60 194h-32v-121c0-31-8-49-39-48C34-167 62-67 57 0H25l-1-190h30c1 10-1 24 2 32 11-22 29-35 61-36" id="ak"/><path fill="#333" d="M103-251c84 0 111 97 45 133-19 10-37 24-39 52H78c0-63 77-55 77-114 0-30-21-42-52-43-32 0-53 17-56 46l-32-2c7-45 34-72 88-72zM77 0v-35h34V0H77" id="al"/><g id="g"><use transform="matrix(0.05,0,0,0.05,0,0)" xlink:href="#ai"/><use transform="matrix(0.05,0,0,0.05,10,0)" xlink:href="#aj"/><use transform="matrix(0.05,0,0,0.05,19,0)" xlink:href="#ai"/><use transform="matrix(0.05,0,0,0.05,29,0)" xlink:href="#ak"/><use transform="matrix(0.05,0,0,0.05,39,0)" xlink:href="#al"/></g><use transform="matrix(0.05,0,0,0.05,0,0)" xlink:href="#ae" id="h"/><use transform="matrix(0.05,0,0,0.05,0,0)" xlink:href="#Y" id="i"/><use transform="matrix(0.05,0,0,0.05,0,0)" xlink:href="#ae" id="j"/><path fill="#fff" d="M118-107v75H92v-75H18v-26h74v-75h26v75h74v26h-74" id="am"/><use transform="matrix(0.05,0,0,0.05,0,0)" xlink:href="#am" id="k"/><path fill="#fff" d="M27 0v-27h64v-190l-56 39v-29l58-41h29v221h61V0H27" id="an"/><use transform="matrix(0.05,0,0,0.05,0,0)" xlink:href="#an" id="l"/><g id="m"><use transform="matrix(0.05,0,0,0.05,0,0)" xlink:href="#af"/><use transform="matrix(0.05,0,0,0.05,5,0)" xlink:href="#ag"/></g><use transform="matrix(0.05,0,0,0.05,0,0)" xlink:href="#ah" id="n"/><path fill="#333" d="M115-194c55 1 70 41 70 98S169 2 115 4C84 4 66-9 55-30l1 105H24l-1-265h31l2 30c10-21 28-34 59-34zm-8 174c40 0 45-34 45-75s-6-73-45-74c-42 0-51 32-51 76 0 43 10 73 51 73" id="ao"/><path fill="#333" d="M114-163C36-179 61-72 57 0H25l-1-190h30c1 12-1 29 2 39 6-27 23-49 58-41v29" id="ap"/><path fill="#333" d="M24-231v-30h32v30H24zM24 0v-190h32V0H24" id="aq"/><path fill="#333" d="M210-169c-67 3-38 105-44 169h-31v-121c0-29-5-50-35-48C34-165 62-65 56 0H25l-1-190h30c1 10-1 24 2 32 10-44 99-50 107 0 11-21 27-35 58-36 85-2 47 119 55 194h-31v-121c0-29-5-49-35-48" id="ar"/><g id="o"><use transform="matrix(0.05,0,0,0.05,0,0)" xlink:href="#ao"/><use transform="matrix(0.05,0,0,0.05,10,0)" xlink:href="#ap"/><use transform="matrix(0.05,0,0,0.05,15.949999999999998,0)" xlink:href="#aq"/><use transform="matrix(0.05,0,0,0.05,19.9,0)" xlink:href="#ar"/><use transform="matrix(0.05,0,0,0.05,34.85,0)" xlink:href="#ai"/><use transform="matrix(0.05,0,0,0.05,44.85,0)" xlink:href="#al"/></g><use transform="matrix(0.05,0,0,0.05,0,0)" xlink:href="#ah" id="p"/><path fill="#333" d="M18-100v-36l175-74v27L42-118l151 64v27" id="as"/><use transform="matrix(0.05,0,0,0.05,0,0)" xlink:href="#as" id="q"/><path fill="#333" d="M185-189c-5-48-123-54-124 2 14 75 158 14 163 119 3 78-121 87-175 55-17-10-28-26-33-46l33-7c5 56 141 63 141-1 0-78-155-14-162-118-5-82 145-84 179-34 5 7 8 16 11 25" id="at"/><g id="r"><use transform="matrix(0.05,0,0,0.05,0,0)" xlink:href="#at"/><use transform="matrix(0.05,0,0,0.05,12,0)" xlink:href="#al"/></g><use transform="matrix(0.05,0,0,0.05,0,0)" xlink:href="#at" id="s"/><path fill="#333" d="M18-150v-26h174v26H18zm0 90v-26h174v26H18" id="au"/><use transform="matrix(0.05,0,0,0.05,0,0)" xlink:href="#au" id="t"/><use transform="matrix(0.05,0,0,0.05,0,0)" xlink:href="#at" id="u"/><path fill="#333" d="M16-82v-28h88v28H16" id="av"/><use transform="matrix(0.05,0,0,0.05,0,0)" xlink:href="#av" id="v"/><path fill="#333" d="M27 0v-27h64v-190l-56 39v-29l58-41h29v221h61V0H27" id="aw"/><use transform="matrix(0.05,0,0,0.05,0,0)" xlink:href="#aw" id="w"/><path fill="#333" d="M100-194c62-1 85 37 85 99 1 63-27 99-86 99S16-35 15-95c0-66 28-99 85-99zM99-20c44 1 53-31 53-75 0-43-8-75-51-75s-53 32-53 75 10 74 51 75" id="ax"/><path fill="#333" d="M84 4C-5 8 30-112 23-190h32v120c0 31 7 50 39 49 72-2 45-101 50-169h31l1 190h-30c-1-10 1-25-2-33-11 22-28 36-60 37" id="ay"/><path fill="#333" d="M59-47c-2 24 18 29 38 22v24C64 9 27 4 27-40v-127H5v-23h24l9-43h21v43h35v23H59v120" id="az"/><g id="x"><use transform="matrix(0.05,0,0,0.05,0,0)" xlink:href="#ax"/><use transform="matrix(0.05,0,0,0.05,10,0)" xlink:href="#ay"/><use transform="matrix(0.05,0,0,0.05,20,0)" xlink:href="#az"/><use transform="matrix(0.05,0,0,0.05,25,0)" xlink:href="#ao"/><use transform="matrix(0.05,0,0,0.05,35,0)" xlink:href="#ay"/><use transform="matrix(0.05,0,0,0.05,45,0)" xlink:href="#az"/></g><use transform="matrix(0.05,0,0,0.05,0,0)" xlink:href="#ah" id="y"/><g id="z"><use transform="matrix(0.05,0,0,0.05,0,0)" xlink:href="#at"/><use transform="matrix(0.05,0,0,0.05,12,0)" xlink:href="#az"/><use transform="matrix(0.05,0,0,0.05,17,0)" xlink:href="#ax"/><use transform="matrix(0.05,0,0,0.05,27,0)" xlink:href="#ao"/></g><use transform="matrix(0.05,0,0,0.05,0,0)" xlink:href="#ah" id="A"/><use transform="matrix(0.05,0,0,0.05,0,0)" xlink:href="#ah" id="B"/><path fill="#333" d="M118-107v75H92v-75H18v-26h74v-75h26v75h74v26h-74" id="aA"/><use transform="matrix(0.05,0,0,0.05,0,0)" xlink:href="#aA" id="C"/><path fill="#333" d="M101-251c82-7 93 87 43 132L82-64C71-53 59-42 53-27h129V0H18c2-99 128-94 128-182 0-28-16-43-45-43s-46 15-49 41l-32-3c6-41 34-60 81-64" id="aB"/><use transform="matrix(0.05,0,0,0.05,0,0)" xlink:href="#aB" id="D"/><path fill="#333" d="M146-102V0H94v-102L6-248h54l60 105 60-105h54" id="aC"/><path fill="#333" d="M24 0v-248h195v40H76v63h132v40H76v65h150V0H24" id="aD"/><path fill="#333" d="M169-182c-1-43-94-46-97-3 18 66 151 10 154 114 3 95-165 93-204 36-6-8-10-19-12-30l50-8c3 46 112 56 116 5-17-69-150-10-154-114-4-87 153-88 188-35 5 8 8 18 10 28" id="aE"/><g id="E"><use transform="matrix(0.04320987654320988,0,0,0.04320987654320988,0,0)" xlink:href="#aC"/><use transform="matrix(0.04320987654320988,0,0,0.04320987654320988,10.370370370370372,0)" xlink:href="#aD"/><use transform="matrix(0.04320987654320988,0,0,0.04320987654320988,20.740740740740744,0)" xlink:href="#aE"/></g><path fill="#333" d="M175 0L67-191c6 58 2 128 3 191H24v-248h59L193-55c-6-58-2-129-3-193h46V0h-61" id="aF"/><path fill="#333" d="M140-251c80 0 125 45 125 126S219 4 139 4C58 4 15-44 15-125s44-126 125-126zm-1 214c52 0 73-35 73-88 0-50-21-86-72-86-52 0-73 35-73 86s22 88 72 88" id="aG"/><g id="F"><use transform="matrix(0.04320987654320988,0,0,0.04320987654320988,0,0)" xlink:href="#aF"/><use transform="matrix(0.04320987654320988,0,0,0.04320987654320988,11.19135802469136,0)" xlink:href="#aG"/></g><path fill="#333" d="M30-248c118-7 216 8 213 122C240-48 200 0 122 0H30v-248zM63-27c89 8 146-16 146-99s-60-101-146-95v194" id="aH"/><g id="G"><use transform="matrix(0.05,0,0,0.05,0,0)" xlink:href="#aH"/><use transform="matrix(0.05,0,0,0.05,12.950000000000001,0)" xlink:href="#ax"/><use transform="matrix(0.05,0,0,0.05,22.950000000000003,0)" xlink:href="#ai"/><use transform="matrix(0.05,0,0,0.05,32.95,0)" xlink:href="#ag"/></g><use transform="matrix(0.05,0,0,0.05,0,0)" xlink:href="#at" id="H"/><use transform="matrix(0.05,0,0,0.05,0,0)" xlink:href="#au" id="I"/><path fill="#333" d="M101-251c68 0 85 55 85 127S166 4 100 4C33 4 14-52 14-124c0-73 17-127 87-127zm-1 229c47 0 54-49 54-102s-4-102-53-102c-51 0-55 48-55 102 0 53 5 102 54 102" id="aI"/><g id="J"><use transform="matrix(0.05,0,0,0.05,0,0)" xlink:href="#aI"/><use transform="matrix(0.05,0,0,0.05,10,0)" xlink:href="#al"/></g><path fill="#a9afb8" d="M135-194c53 0 70 44 70 98 0 56-19 98-73 100-31 1-45-17-59-34 3 33 2 69 2 105H25l-1-265h48c2 10 0 23 3 31 11-24 29-35 60-35zM114-30c33 0 39-31 40-66 0-38-9-64-40-64-56 0-55 130 0 130" id="aJ"/><use transform="matrix(0.0728395061728395,0,0,0.0728395061728395,0,0)" xlink:href="#aJ" id="K"/><path fill="#a9afb8" d="M133-34C117-15 103 5 69 4 32 3 11-16 11-54c-1-60 55-63 116-61 1-26-3-47-28-47-18 1-26 9-28 27l-52-2c7-38 36-58 82-57s74 22 75 68l1 82c-1 14 12 18 25 15v27c-30 8-71 5-69-32zm-48 3c29 0 43-24 42-57-32 0-66-3-65 30 0 17 8 27 23 27" id="aK"/><path fill="#a9afb8" d="M25 0v-261h50V0H25" id="aL"/><path fill="#a9afb8" d="M195-6C206 82 75 100 31 46c-4-6-6-13-8-21l49-6c3 16 16 24 34 25 40 0 42-37 40-79-11 22-30 35-61 35-53 0-70-43-70-97 0-56 18-96 73-97 30 0 46 14 59 34l2-30h47zm-90-29c32 0 41-27 41-63 0-35-9-62-40-62-32 0-39 29-40 63 0 36 9 62 39 62" id="aM"/><path fill="#a9afb8" d="M110-194c64 0 96 36 96 99 0 64-35 99-97 99-61 0-95-36-95-99 0-62 34-99 96-99zm-1 164c35 0 45-28 45-65 0-40-10-65-43-65-34 0-45 26-45 65 0 36 10 65 43 65" id="aN"/><path fill="#a9afb8" d="M135-150c-39-12-60 13-60 57V0H25l-1-190h47c2 13-1 29 3 40 6-28 27-53 61-41v41" id="aO"/><path fill="#a9afb8" d="M25-224v-37h50v37H25zM25 0v-190h50V0H25" id="aP"/><path fill="#a9afb8" d="M115-3C79 11 28 4 28-45v-112H4v-33h27l15-45h31v45h36v33H77v99c-1 23 16 31 38 25v30" id="aQ"/><path fill="#a9afb8" d="M114-157C55-157 80-60 75 0H25v-261h50l-1 109c12-26 28-41 61-42 86-1 58 113 63 194h-50c-7-57 23-157-34-157" id="aR"/><path fill="#a9afb8" d="M220-157c-53 9-28 100-34 157h-49v-107c1-27-5-49-29-50C55-147 81-57 75 0H25l-1-190h47c2 12-1 28 3 38 10-53 101-56 108 0 13-22 24-43 59-42 82 1 51 116 57 194h-49v-107c-1-25-5-48-29-50" id="aS"/><path fill="#a9afb8" d="M190-63c-7 42-38 67-86 67-59 0-84-38-90-98-12-110 154-137 174-36l-49 2c-2-19-15-32-35-32-30 0-35 28-38 64-6 74 65 87 74 30" id="aT"/><g id="L"><use transform="matrix(0.0728395061728395,0,0,0.0728395061728395,0,0)" xlink:href="#aK"/><use transform="matrix(0.0728395061728395,0,0,0.0728395061728395,14.5679012345679,0)" xlink:href="#aL"/><use transform="matrix(0.0728395061728395,0,0,0.0728395061728395,21.85185185185185,0)" xlink:href="#aM"/><use transform="matrix(0.0728395061728395,0,0,0.0728395061728395,37.803703703703704,0)" xlink:href="#aN"/><use transform="matrix(0.0728395061728395,0,0,0.0728395061728395,53.75555555555555,0)" xlink:href="#aO"/><use transform="matrix(0.0728395061728395,0,0,0.0728395061728395,63.953086419753085,0)" xlink:href="#aP"/><use transform="matrix(0.0728395061728395,0,0,0.0728395061728395,71.23703703703704,0)" xlink:href="#aQ"/><use transform="matrix(0.0728395061728395,0,0,0.0728395061728395,79.90493827160495,0)" xlink:href="#aR"/><use transform="matrix(0.0728395061728395,0,0,0.0728395061728395,95.8567901234568,0)" xlink:href="#aS"/><use transform="matrix(0.0728395061728395,0,0,0.0728395061728395,119.16543209876545,0)" xlink:href="#aP"/><use transform="matrix(0.0728395061728395,0,0,0.0728395061728395,126.4493827160494,0)" xlink:href="#aT"/></g><path fill="#a9afb8" d="M88-194c31-1 46 15 58 34l-1-101h50l1 261h-48c-2-10 0-23-3-31C134-8 116 4 84 4 32 4 16-41 15-95c0-56 19-97 73-99zm17 164c33 0 40-30 41-66 1-37-9-64-41-64s-38 30-39 65c0 43 13 65 39 65" id="aU"/><g id="M"><use transform="matrix(0.0728395061728395,0,0,0.0728395061728395,0,0)" xlink:href="#aU"/><use transform="matrix(0.0728395061728395,0,0,0.0728395061728395,15.95185185185185,0)" xlink:href="#aK"/><use transform="matrix(0.0728395061728395,0,0,0.0728395061728395,30.51975308641975,0)" xlink:href="#aQ"/><use transform="matrix(0.0728395061728395,0,0,0.0728395061728395,39.187654320987654,0)" xlink:href="#aK"/></g><path fill="#a9afb8" d="M240 0l2-218c-23 76-54 145-80 218h-23L58-218 59 0H30v-248h44l77 211c21-75 51-140 76-211h43V0h-30" id="aV"/><path fill="#a9afb8" d="M24-231v-30h32v30H24zM24 0v-190h32V0H24" id="aW"/><path fill="#a9afb8" d="M96-169c-40 0-48 33-48 73s9 75 48 75c24 0 41-14 43-38l32 2c-6 37-31 61-74 61-59 0-76-41-82-99-10-93 101-131 147-64 4 7 5 14 7 22l-32 3c-4-21-16-35-41-35" id="aX"/><path fill="#a9afb8" d="M106-169C34-169 62-67 57 0H25v-261h32l-1 103c12-21 28-36 61-36 89 0 53 116 60 194h-32v-121c2-32-8-49-39-48" id="aY"/><path fill="#a9afb8" d="M100-194c63 0 86 42 84 106H49c0 40 14 67 53 68 26 1 43-12 49-29l28 8c-11 28-37 45-77 45C44 4 14-33 15-96c1-61 26-98 85-98zm52 81c6-60-76-77-97-28-3 7-6 17-6 28h103" id="aZ"/><path fill="#a9afb8" d="M24 0v-261h32V0H24" id="ba"/><g id="N"><use transform="matrix(0.04248971193415638,0,0,0.04248971193415638,0,0)" xlink:href="#aV"/><use transform="matrix(0.04248971193415638,0,0,0.04248971193415638,12.704423868312757,0)" xlink:href="#aW"/><use transform="matrix(0.04248971193415638,0,0,0.04248971193415638,16.06111111111111,0)" xlink:href="#aX"/><use transform="matrix(0.04248971193415638,0,0,0.04248971193415638,23.70925925925926,0)" xlink:href="#aY"/><use transform="matrix(0.04248971193415638,0,0,0.04248971193415638,32.20720164609053,0)" xlink:href="#aZ"/><use transform="matrix(0.04248971193415638,0,0,0.04248971193415638,40.70514403292181,0)" xlink:href="#ba"/></g><path fill="#a9afb8" d="M185-189c-5-48-123-54-124 2 14 75 158 14 163 119 3 78-121 87-175 55-17-10-28-26-33-46l33-7c5 56 141 63 141-1 0-78-155-14-162-118-5-82 145-84 179-34 5 7 8 16 11 25" id="bb"/><path fill="#a9afb8" d="M141-36C126-15 110 5 73 4 37 3 15-17 15-53c-1-64 63-63 125-63 3-35-9-54-41-54-24 1-41 7-42 31l-33-3c5-37 33-52 76-52 45 0 72 20 72 64v82c-1 20 7 32 28 27v20c-31 9-61-2-59-35zM48-53c0 20 12 33 32 33 41-3 63-29 60-74-43 2-92-5-92 41" id="bc"/><path fill="#a9afb8" d="M210-169c-67 3-38 105-44 169h-31v-121c0-29-5-50-35-48C34-165 62-65 56 0H25l-1-190h30c1 10-1 24 2 32 10-44 99-50 107 0 11-21 27-35 58-36 85-2 47 119 55 194h-31v-121c0-29-5-49-35-48" id="bd"/><path fill="#a9afb8" d="M115-194c53 0 69 39 70 98 0 66-23 100-70 100C84 3 66-7 56-30L54 0H23l1-261h32v101c10-23 28-34 59-34zm-8 174c40 0 45-34 45-75 0-40-5-75-45-74-42 0-51 32-51 76 0 43 10 73 51 73" id="be"/><path fill="#a9afb8" d="M100-194c62-1 85 37 85 99 1 63-27 99-86 99S16-35 15-95c0-66 28-99 85-99zM99-20c44 1 53-31 53-75 0-43-8-75-51-75s-53 32-53 75 10 74 51 75" id="bf"/><path fill="#a9afb8" d="M114-163C36-179 61-72 57 0H25l-1-190h30c1 12-1 29 2 39 6-27 23-49 58-41v29" id="bg"/><path fill="#a9afb8" d="M135-143c-3-34-86-38-87 0 15 53 115 12 119 90S17 21 10-45l28-5c4 36 97 45 98 0-10-56-113-15-118-90-4-57 82-63 122-42 12 7 21 19 24 35" id="bh"/><path fill="#a9afb8" d="M143 0L79-87 56-68V0H24v-261h32v163l83-92h37l-77 82L181 0h-38" id="bi"/><g id="O"><use transform="matrix(0.04248971193415638,0,0,0.04248971193415638,0,0)" xlink:href="#bb"/><use transform="matrix(0.04248971193415638,0,0,0.04248971193415638,10.19753086419753,0)" xlink:href="#bc"/><use transform="matrix(0.04248971193415638,0,0,0.04248971193415638,18.695473251028805,0)" xlink:href="#bd"/><use transform="matrix(0.04248971193415638,0,0,0.04248971193415638,31.399897119341556,0)" xlink:href="#be"/><use transform="matrix(0.04248971193415638,0,0,0.04248971193415638,39.897839506172836,0)" xlink:href="#bf"/><use transform="matrix(0.04248971193415638,0,0,0.04248971193415638,48.39578189300411,0)" xlink:href="#bg"/><use transform="matrix(0.04248971193415638,0,0,0.04248971193415638,53.45205761316872,0)" xlink:href="#bh"/><use transform="matrix(0.04248971193415638,0,0,0.04248971193415638,61.10020576131686,0)" xlink:href="#bi"/><use transform="matrix(0.04248971193415638,0,0,0.04248971193415638,68.74835390946501,0)" xlink:href="#aW"/></g><path fill="#a9afb8" d="M32 76v-337h29V76H32" id="bj"/><use transform="matrix(0.04248971193415638,0,0,0.04248971193415638,0,0)" xlink:href="#bj" id="P"/><path fill="#a9afb8" d="M205 0l-28-72H64L36 0H1l101-248h38L239 0h-34zm-38-99l-47-123c-12 45-31 82-46 123h93" id="bk"/><path fill="#a9afb8" d="M115-194c55 1 70 41 70 98S169 2 115 4C84 4 66-9 55-30l1 105H24l-1-265h31l2 30c10-21 28-34 59-34zm-8 174c40 0 45-34 45-75s-6-73-45-74c-42 0-51 32-51 76 0 43 10 73 51 73" id="bl"/><g id="Q"><use transform="matrix(0.04248971193415638,0,0,0.04248971193415638,0,0)" xlink:href="#bk"/><use transform="matrix(0.04248971193415638,0,0,0.04248971193415638,10.19753086419753,0)" xlink:href="#bl"/><use transform="matrix(0.04248971193415638,0,0,0.04248971193415638,18.695473251028805,0)" xlink:href="#bg"/><use transform="matrix(0.04248971193415638,0,0,0.04248971193415638,23.751748971193415,0)" xlink:href="#aW"/><use transform="matrix(0.04248971193415638,0,0,0.04248971193415638,27.10843621399177,0)" xlink:href="#ba"/></g><path fill="#a9afb8" d="M101-251c82-7 93 87 43 132L82-64C71-53 59-42 53-27h129V0H18c2-99 128-94 128-182 0-28-16-43-45-43s-46 15-49 41l-32-3c6-41 34-60 81-64" id="bm"/><path fill="#a9afb8" d="M68-38c1 34 0 65-14 84H32c9-13 17-26 17-46H33v-38h35" id="bn"/><g id="R"><use transform="matrix(0.04248971193415638,0,0,0.04248971193415638,0,0)" xlink:href="#bm"/><use transform="matrix(0.04248971193415638,0,0,0.04248971193415638,8.497942386831275,0)" xlink:href="#bn"/></g><path fill="#a9afb8" d="M101-251c68 0 85 55 85 127S166 4 100 4C33 4 14-52 14-124c0-73 17-127 87-127zm-1 229c47 0 54-49 54-102s-4-102-53-102c-51 0-55 48-55 102 0 53 5 102 54 102" id="bo"/><g id="S"><use transform="matrix(0.04248971193415638,0,0,0.04248971193415638,0,0)" xlink:href="#bm"/><use transform="matrix(0.04248971193415638,0,0,0.04248971193415638,8.497942386831275,0)" xlink:href="#bo"/><use transform="matrix(0.04248971193415638,0,0,0.04248971193415638,16.99588477366255,0)" xlink:href="#bm"/><use transform="matrix(0.04248971193415638,0,0,0.04248971193415638,25.493827160493822,0)" xlink:href="#bm"/></g></defs></g></svg>